<?xml version="1.0" encoding="UTF-8" standalone="no"?>
<!-- Generator: Adobe Illustrator 17.0.1, SVG Export Plug-In . SVG Version: 6.00 Build 0)  -->

<svg
   xmlns:dc="http://purl.org/dc/elements/1.1/"
   xmlns:cc="http://creativecommons.org/ns#"
   xmlns:rdf="http://www.w3.org/1999/02/22-rdf-syntax-ns#"
   xmlns:svg="http://www.w3.org/2000/svg"
   xmlns="http://www.w3.org/2000/svg"
   xmlns:sodipodi="http://sodipodi.sourceforge.net/DTD/sodipodi-0.dtd"
   xmlns:inkscape="http://www.inkscape.org/namespaces/inkscape"
   version="1.1"
   x="0px"
   y="0px"
   width="86px"
   height="86px"
   viewBox="0 0 86 86"
   enable-background="new 0 0 86 86"
   xml:space="preserve"
   id="svg22"
   sodipodi:docname="harbour-sailslack.svg"
   inkscape:version="0.92.4 (unknown)"><metadata
   id="metadata28"><rdf:RDF><cc:Work
       rdf:about=""><dc:format>image/svg+xml</dc:format><dc:type
         rdf:resource="http://purl.org/dc/dcmitype/StillImage" /><dc:title></dc:title></cc:Work></rdf:RDF></metadata><defs
   id="defs26">
	
		<radialGradient
   gradientUnits="userSpaceOnUse"
   gradientTransform="matrix(0.9977,0,0,0.9977,-0.1211,-0.135)"
   r="42.7984"
   cy="43.2344"
   cx="43.2205"
   id="SVGID_1_">
		<stop
   id="stop3"
   style="stop-color:#868688"
   offset="0" />
		<stop
   id="stop5"
   style="stop-color:#DADADA"
   offset="1" />
	</radialGradient>
	
	
	
		<linearGradient
   gradientTransform="translate(0,-3e-4)"
   y2="27.9064"
   x2="69.0939"
   y1="80.0942"
   x1="16.9061"
   gradientUnits="userSpaceOnUse"
   id="SVGID_2_">
		<stop
   id="stop12"
   style="stop-color:#003866"
   offset="0" />
		<stop
   id="stop14"
   style="stop-color:#2367A1"
   offset="1" />
	</linearGradient>
	
	
</defs><sodipodi:namedview
   pagecolor="#ffffff"
   bordercolor="#666666"
   borderopacity="1"
   objecttolerance="10"
   gridtolerance="10"
   guidetolerance="10"
   inkscape:pageopacity="0"
   inkscape:pageshadow="2"
   inkscape:window-width="1865"
   inkscape:window-height="2119"
   id="namedview24"
   showgrid="false"
   inkscape:zoom="2.744186"
   inkscape:cx="8.0039927"
   inkscape:cy="166.21729"
   inkscape:window-x="110"
   inkscape:window-y="0"
   inkscape:window-maximized="0"
   inkscape:current-layer="svg22" />
<g
   id="Layer_2"
   display="none">
</g>
<path
   inkscape:connector-curvature="0"
   style="fill:url(#SVGID_1_)"
   id="path8"
   d="m 84.277,0.3 c 0,0 -39.494,0 -41.277,0 C 19.417,0.3 0.3,19.417 0.3,43 c 0,1.783 0,41.277 0,41.277 0,0.786 0.637,1.423 1.423,1.423 h 47.444 35.109 c 0.786,0 1.423,-0.637 1.423,-1.423 V 49.168 1.723 C 85.7,0.937 85.063,0.3 84.277,0.3 Z" />
<g
   id="g1143"
   transform="rotate(45,42.687889,41.851748)"><rect
     style="fill:#ffffff;fill-opacity:1;stroke-width:1.17260849"
     id="rect1112"
     width="13.095339"
     height="52.5"
     x="12.358004"
     y="17.023306"
     rx="6.5476694"
     ry="5.25" /><rect
     ry="5"
     rx="5"
     y="18.273306"
     x="13.905673"
     height="50"
     width="10"
     id="rect35"
     style="fill:#e01e5a;fill-opacity:1" /></g><g
   id="g1147"
   transform="rotate(45,54.586974,44.537742)"><rect
     style="fill:#ffffff;fill-opacity:1;stroke-width:1.17260849"
     id="rect1112-6"
     width="13.095339"
     height="52.5"
     x="31.259535"
     y="26.497881"
     rx="6.5476694"
     ry="5.25" /><rect
     ry="5"
     rx="5"
     y="27.747881"
     x="32.807205"
     height="50"
     width="10"
     id="rect35-3"
     style="fill:#ecb22e;fill-opacity:1" /></g><g
   id="g1151"
   transform="rotate(45,42.304805,38.895845)"><rect
     style="fill:#ffffff;fill-opacity:1;stroke-width:1.17260849"
     id="rect1112-7"
     width="13.095339"
     height="52.5"
     x="49.115467"
     y="15.747881"
     rx="6.5476694"
     ry="5.25" /><rect
     ry="5"
     rx="5"
     y="16.997881"
     x="50.663136"
     height="50"
     width="10"
     id="rect35-6"
     style="fill:#2eb67d;fill-opacity:1" /></g><g
   id="g1155"
   transform="rotate(45,58.711924,45.638156)"><rect
     style="fill:#ffffff;fill-opacity:1;stroke-width:1.17260849"
     id="rect1112-5"
     width="13.095339"
     height="52.5"
     x="65.791313"
     y="29.413136"
     rx="6.5476694"
     ry="5.25" /><rect
     ry="5"
     rx="5"
     y="30.663136"
     x="67.338982"
     height="50"
     width="10"
     id="rect35-7"
     style="fill:#36c5f0;fill-opacity:1" /></g></svg>